<svg width="486" height="482" viewBox="0 0 486 482" fill="none" xmlns="http://www.w3.org/2000/svg">
<path d="M213.448 412.769L211.712 421.325L201.433 419.239L203.17 410.683L213.448 412.769Z" fill="white"/>
<path d="M176.942 402.471L154.719 448.998L136.108 440.109L140.439 431.041L149.691 435.461L153.227 428.059L144.45 423.866L148.731 414.905L157.508 419.097L167.584 398.001L176.942 402.471Z" fill="white"/>
<path d="M127.702 370.723C130.896 373.598 132.444 376.607 132.347 379.752C132.237 382.911 130.614 386.232 127.478 389.717L102.217 417.787L94.7693 411.085L119.756 383.319C120.331 382.68 120.85 382.031 121.313 381.37C121.763 380.724 122.027 380.095 122.106 379.482C122.184 378.869 121.933 378.302 121.352 377.779C120.757 377.244 120.165 377.04 119.577 377.167C118.976 377.31 118.379 377.652 117.785 378.195C117.177 378.725 116.585 379.31 116.011 379.948L91.0237 407.714L83.5759 401.012L108.837 372.941C111.973 369.457 115.106 367.494 118.236 367.052C121.352 366.626 124.508 367.849 127.702 370.723Z" fill="white"/>
<path d="M100.694 341.257L56.7591 368.246L51.3613 359.459L87.8074 337.071L82.2562 328.034L89.7451 323.434L100.694 341.257Z" fill="white"/>
<path d="M79.3785 299.352L29.7906 313.484L26.9641 303.567L68.0995 291.843L65.1927 281.644L73.6452 279.235L79.3785 299.352Z" fill="white"/>
<path d="M70.2001 234.503L61.497 233.812L62.327 223.357L71.0301 224.048L70.2001 234.503Z" fill="white"/>
<path d="M80.3543 185.648C78.8036 190.092 76.5775 192.915 73.6761 194.116C70.7811 195.299 66.9179 195.047 62.0864 193.361L57.3286 191.701L60.6874 182.075L66.7729 184.198C67.8978 184.591 68.8409 184.734 69.6022 184.627C70.3514 184.495 70.874 184.006 71.17 183.157C71.4789 182.272 71.433 181.573 71.0325 181.061C70.6384 180.531 69.8513 180.06 68.671 179.648C67.1773 179.127 65.8811 178.84 64.7823 178.787C63.6651 178.729 62.526 178.91 61.3651 179.333C60.1921 179.73 58.7718 180.362 57.1043 181.228L51.4301 184.151C47.2116 186.34 43.1199 186.743 39.1551 185.36C35.0059 183.912 32.1779 181.85 30.6711 179.173C29.1707 176.477 29.0575 173.304 30.3315 169.652C31.8886 165.19 34.1816 162.442 37.2104 161.41C40.2455 160.359 44.1881 160.679 49.0381 162.372L45.5828 172.274L42.2357 171.107C41.5719 170.875 40.988 170.888 40.484 171.147C39.9865 171.387 39.6251 171.83 39.3999 172.475C39.1297 173.25 39.1515 173.899 39.4654 174.422C39.7673 174.92 40.2594 175.288 40.9417 175.527C41.624 175.765 42.426 175.838 43.3476 175.745C44.2693 175.653 45.4363 175.243 46.8486 174.516L54.2019 170.783C55.664 170.031 57.1584 169.394 58.6852 168.872C60.1936 168.343 61.8405 168.07 63.6259 168.051C65.3928 168.026 67.4104 168.41 69.6786 169.201C74.252 170.797 77.5427 172.897 79.5509 175.501C81.5471 178.08 81.8149 181.462 80.3543 185.648Z" fill="white"/>
<path d="M99.1262 146.929L65.2221 122.72L61.6639 127.703L53.6052 121.949L66.7142 103.59L74.773 109.345L71.2148 114.328L105.119 138.537L99.1262 146.929Z" fill="white"/>
<path d="M125.54 115.37L97.8272 71.6037L111.636 60.8697L147.144 98.5772L139.441 104.565L133.757 98.4449L128.853 102.257L133.45 109.221L125.54 115.37ZM124.379 95.3074L128.08 92.4306L110.207 73.113L109.837 73.4007L124.379 95.3074Z" fill="white"/>
<path d="M182.224 81.7996C178.729 83.1028 175.505 83.0647 172.552 81.6852C169.617 80.2988 167.419 77.6475 165.959 73.7312L157.649 51.4409C155.902 46.7559 155.489 42.8244 156.409 39.6463C157.348 36.4615 159.913 34.0879 164.104 32.5254C166.391 31.6725 168.58 31.3361 170.669 31.5161C172.776 31.6893 174.656 32.4267 176.309 33.7282C177.954 35.0115 179.251 36.9251 180.2 39.4689L183.311 47.814L173.703 51.3961L171.042 44.2588C170.503 42.813 169.959 41.9113 169.408 41.5536C168.851 41.1777 168.188 41.133 167.42 41.4195C166.523 41.7539 166.042 42.3084 165.976 43.0833C165.904 43.8398 166.069 44.7579 166.472 45.8377L175.488 70.0221C175.986 71.358 176.53 72.2289 177.119 72.6346C177.726 73.0335 178.396 73.0965 179.128 72.8236C179.952 72.5166 180.402 71.9631 180.479 71.1631C180.574 70.3564 180.42 69.4131 180.018 68.3334L176.773 59.6314L186.491 56.0084L189.899 65.1496C191.482 69.3954 191.561 72.8782 190.136 75.598C188.705 78.2996 186.068 80.3668 182.224 81.7996Z" fill="white"/>
<path d="M220.655 71.3801L217.782 19.8977L227.961 19.3295L229.112 39.9517L232.758 19.0617L243.113 18.4837L238.667 42.382L247.186 69.8992L236.51 70.4951L229.502 45.8865L230.893 70.8086L220.655 71.3801Z" fill="white"/>
<path d="M272.019 72.8708L273.783 64.3205L284.055 66.4404L282.29 74.9907L272.019 72.8708Z" fill="white"/>
<path d="M308.468 83.0679L331.617 36.994L344.287 43.36C347.603 45.0261 349.634 47.205 350.38 49.8967C351.135 52.571 350.622 55.6795 348.842 59.2223L338.004 80.7933C335.812 85.1563 333.352 88.1388 330.623 89.7407C327.912 91.3513 324.646 91.1965 320.824 89.2761L308.468 83.0679ZM321.825 79.5826L323.422 80.3849C325.115 81.2355 326.374 80.8405 327.198 79.2L339.141 55.4301C339.912 53.8943 340.198 52.803 339.999 52.1562C339.825 51.5008 339.11 50.8574 337.854 50.2261L336.833 49.7131L321.825 79.5826Z" fill="white"/>
<path d="M353.561 110.631L389.021 73.1973L403.995 87.3814L397.144 94.6129L389.785 87.6417L382.875 94.937L389.936 101.626L383.267 108.666L376.206 101.977L368.086 110.548L375.934 117.983L369.024 125.278L353.561 110.631Z" fill="white"/>
<path d="M388.074 150.292L429.609 119.036L434.507 127.54L405.978 148.331L438.074 133.735L442.972 142.24L395.092 162.478L388.074 150.292Z" fill="white"/>
<path d="M407.803 193.113L457.977 181.229L462.731 201.299L453.038 203.595L450.702 193.731L440.923 196.047L443.165 205.512L433.729 207.747L431.487 198.282L419.998 201.003L422.49 211.522L412.711 213.838L407.803 193.113Z" fill="white"/>
<path d="M415.057 240.552L466.57 242.792L466.123 253.095L423.389 251.237L422.929 261.832L414.148 261.451L415.057 240.552Z" fill="white"/>
<path d="M404.998 298.631C406.347 294.737 408.551 292.162 411.611 290.907C414.683 289.677 418.443 289.832 422.89 291.372L446.034 299.387C450.205 300.832 453.019 302.943 454.475 305.721C455.925 308.517 455.969 311.881 454.607 315.812C453.246 319.743 451.134 322.35 448.272 323.632C445.403 324.933 441.883 324.861 437.712 323.417L414.568 315.401C410.121 313.861 407.073 311.648 405.427 308.763C403.793 305.903 403.65 302.525 404.998 298.631ZM413.939 301.821C413.428 303.297 414.602 304.531 417.463 305.521L441.243 313.757C443.642 314.588 445.091 314.284 445.59 312.844C446.152 311.22 445.206 309.983 442.752 309.133L418.999 300.907C417.486 300.383 416.333 300.19 415.541 300.329C414.767 300.474 414.233 300.972 413.939 301.821Z" fill="white"/>
<path d="M388.236 335.501L429.677 366.182L421.571 377.131C419.875 379.423 418.022 380.858 416.014 381.437C413.994 382.032 411.827 381.922 409.514 381.108C407.2 380.295 404.74 378.923 402.135 376.994C399.623 375.135 397.613 373.27 396.106 371.401C394.614 369.543 393.822 367.608 393.732 365.597C393.629 363.601 394.427 361.458 396.123 359.166L398.616 355.799L382.204 343.648L388.236 335.501ZM406.057 361.307L405.708 361.778C404.569 363.317 404.304 364.578 404.911 365.563C405.519 366.547 406.663 367.661 408.342 368.905C409.912 370.067 411.249 370.789 412.352 371.071C413.459 371.381 414.478 370.908 415.408 369.652L416.087 368.733L406.057 361.307Z" fill="white"/>
<path d="M354.039 374.51L384.979 415.758L368.479 428.134L362.502 420.166L370.612 414.083L364.582 406.045L356.801 411.881L350.982 404.123L358.763 398.287L351.679 388.842L343.03 395.329L337.001 387.29L354.039 374.51Z" fill="white"/>
<path d="M313.593 400.221L331.448 448.593L316.607 454.071C314.133 454.984 312.055 455.106 310.371 454.437C308.694 453.786 307.27 452.521 306.097 450.643C304.914 448.79 303.818 446.498 302.81 443.768C301.836 441.129 301.398 438.897 301.494 437.071C301.572 435.252 302.425 433.698 304.052 432.411C302.416 432.66 301.073 432.292 300.022 431.306C298.959 430.345 298.076 428.912 297.373 427.006L290.616 408.702L300.153 405.181L307.143 424.118C307.664 425.529 308.278 426.291 308.986 426.405C309.683 426.543 310.673 426.376 311.955 425.902L303.809 403.832L313.593 400.221ZM314.994 434.305L312.658 435.167C311.321 435.661 311.19 437.365 312.265 440.278C312.962 442.165 313.565 443.348 314.074 443.826C314.584 444.304 315.242 444.394 316.048 444.097L318.302 443.265L314.994 434.305Z" fill="white"/>
<rect x="206.5" y="161.5" width="76" height="158" rx="38" stroke="white" stroke-width="9"/>
<rect x="217" y="174" width="56" height="77" rx="28" fill="white"/>
</svg>
