<svg width="2256" height="176" viewBox="0 0 2256 176" fill="none" xmlns="http://www.w3.org/2000/svg">
<path d="M0.679688 174L17.2812 2.125H75.582L91.8906 174H59.3711L56.9297 146.266H36.2266L34.0781 174H0.679688ZM38.668 118.824H54.293L46.7734 31.4219H45.2109L38.668 118.824ZM102.438 174V2.125H155.172C163.961 2.125 170.602 4.14323 175.094 8.17969C179.586 12.151 182.581 17.75 184.078 24.9766C185.641 32.138 186.422 40.569 186.422 50.2695C186.422 59.6445 185.217 67.1315 182.809 72.7305C180.465 78.3294 176.005 82.2031 169.43 84.3516C174.833 85.4583 178.609 88.1602 180.758 92.457C182.971 96.6888 184.078 102.19 184.078 108.961V174H150.191V106.715C150.191 101.702 149.15 98.6094 147.066 97.4375C145.048 96.2005 141.76 95.582 137.203 95.582V174H102.438ZM137.398 65.7969H145.699C150.452 65.7969 152.828 60.6211 152.828 50.2695C152.828 43.5638 152.307 39.1693 151.266 37.0859C150.224 35.0026 148.271 33.9609 145.406 33.9609H137.398V65.7969ZM197.75 174V2.125H266.5V35.3281H232.711V68.8242H265.133V101.148H232.711V140.504H268.746V174H197.75ZM280.172 174V2.125H348.922V35.3281H315.133V68.8242H347.555V101.148H315.133V140.504H351.168V174H280.172ZM398.043 175.562C373.499 175.562 361.227 157.984 361.227 122.828V48.707C361.227 16.6107 375.289 0.5625 403.414 0.5625C415.003 0.5625 423.889 2.90625 430.074 7.59375C436.259 12.2161 440.523 18.987 442.867 27.9062C445.211 36.8255 446.383 47.6979 446.383 60.5234H412.789V45.2891C412.789 41.5781 412.268 38.4857 411.227 36.0117C410.25 33.4727 408.167 32.2031 404.977 32.2031C401.005 32.2031 398.368 33.5378 397.066 36.207C395.829 38.8763 395.211 41.806 395.211 44.9961V128.297C395.211 132.919 395.797 136.695 396.969 139.625C398.206 142.49 400.582 143.922 404.098 143.922C407.743 143.922 410.152 142.49 411.324 139.625C412.561 136.695 413.18 132.854 413.18 128.102V103.59H404V73.9023H445.992V174H432.223L426.363 159.547C420.374 170.224 410.934 175.562 398.043 175.562ZM459.664 174V2.125H506.246C518.746 2.125 527.828 5.1849 533.492 11.3047C539.221 17.3594 542.086 27.3854 542.086 41.3828V48.9023C542.086 56.9753 540.621 63.5182 537.691 68.5312C534.827 73.5443 530.432 76.832 524.508 78.3945C532.255 80.3477 537.431 84.9375 540.035 92.1641C542.704 99.3255 544.039 108.082 544.039 118.434C544.039 129.566 542.997 139.299 540.914 147.633C538.831 155.966 535.055 162.444 529.586 167.066C524.117 171.689 516.337 174 506.246 174H459.664ZM493.258 66.8711H500.289C503.479 66.8711 505.53 65.6341 506.441 63.1602C507.353 60.6862 507.809 57.724 507.809 54.2734V36.9883C507.809 31.4544 505.367 28.6875 500.484 28.6875H493.258V66.8711ZM496.676 143.727C505.595 143.727 510.055 139.495 510.055 131.031V109.547C510.055 104.664 509.306 100.823 507.809 98.0234C506.376 95.1589 503.642 93.7266 499.605 93.7266H493.258V143.531C494.69 143.661 495.829 143.727 496.676 143.727ZM555.367 174V2.125H624.117V35.3281H590.328V68.8242H622.75V101.148H590.328V140.504H626.363V174H555.367ZM684.664 174V2.125H731.93C744.299 2.125 753.609 5.57552 759.859 12.4766C766.109 19.3125 769.234 29.3385 769.234 42.5547V123.023C769.234 139.299 766.37 151.865 760.641 160.719C754.977 169.573 745.016 174 730.758 174H684.664ZM719.234 143.629H725.191C731.507 143.629 734.664 140.569 734.664 134.449V45.7773C734.664 40.0482 733.883 36.3698 732.32 34.7422C730.823 33.0495 727.73 32.2031 723.043 32.2031H719.234V143.629ZM778.609 174L795.211 2.125H853.512L869.82 174H837.301L834.859 146.266H814.156L812.008 174H778.609ZM816.598 118.824H832.223L824.703 31.4219H823.141L816.598 118.824ZM891.891 174L870.699 2.02734H903.414L916.012 119.02L927.242 2.02734H959.957L938.766 174H891.891ZM968.453 174V2.125H1001.66V174H968.453ZM1015.33 174V2.125H1062.59C1074.96 2.125 1084.27 5.57552 1090.52 12.4766C1096.77 19.3125 1099.9 29.3385 1099.9 42.5547V123.023C1099.9 139.299 1097.03 151.865 1091.3 160.719C1085.64 169.573 1075.68 174 1061.42 174H1015.33ZM1049.9 143.629H1055.86C1062.17 143.629 1065.33 140.569 1065.33 134.449V45.7773C1065.33 40.0482 1064.55 36.3698 1062.98 34.7422C1061.49 33.0495 1058.39 32.2031 1053.71 32.2031H1049.9V143.629ZM1156.15 174L1172.75 2.125H1231.05L1247.36 174H1214.84L1212.4 146.266H1191.7L1189.55 174H1156.15ZM1194.14 118.824H1209.76L1202.24 31.4219H1200.68L1194.14 118.824ZM1257.91 174V2.125H1310.64C1319.43 2.125 1326.07 4.14323 1330.56 8.17969C1335.05 12.151 1338.05 17.75 1339.55 24.9766C1341.11 32.138 1341.89 40.569 1341.89 50.2695C1341.89 59.6445 1340.69 67.1315 1338.28 72.7305C1335.93 78.3294 1331.47 82.2031 1324.9 84.3516C1330.3 85.4583 1334.08 88.1602 1336.23 92.457C1338.44 96.6888 1339.55 102.19 1339.55 108.961V174H1305.66V106.715C1305.66 101.702 1304.62 98.6094 1302.54 97.4375C1300.52 96.2005 1297.23 95.582 1292.67 95.582V174H1257.91ZM1292.87 65.7969H1301.17C1305.92 65.7969 1308.3 60.6211 1308.3 50.2695C1308.3 43.5638 1307.78 39.1693 1306.73 37.0859C1305.69 35.0026 1303.74 33.9609 1300.88 33.9609H1292.87V65.7969ZM1353.22 174V2.125H1421.97V35.3281H1388.18V68.8242H1420.6V101.148H1388.18V140.504H1424.21V174H1353.22ZM1435.64 174V2.125H1504.39V35.3281H1470.6V68.8242H1503.02V101.148H1470.6V140.504H1506.64V174H1435.64ZM1553.51 175.562C1528.97 175.562 1516.7 157.984 1516.7 122.828V48.707C1516.7 16.6107 1530.76 0.5625 1558.88 0.5625C1570.47 0.5625 1579.36 2.90625 1585.54 7.59375C1591.73 12.2161 1595.99 18.987 1598.34 27.9062C1600.68 36.8255 1601.85 47.6979 1601.85 60.5234H1568.26V45.2891C1568.26 41.5781 1567.74 38.4857 1566.7 36.0117C1565.72 33.4727 1563.64 32.2031 1560.45 32.2031C1556.47 32.2031 1553.84 33.5378 1552.54 36.207C1551.3 38.8763 1550.68 41.806 1550.68 44.9961V128.297C1550.68 132.919 1551.27 136.695 1552.44 139.625C1553.67 142.49 1556.05 143.922 1559.57 143.922C1563.21 143.922 1565.62 142.49 1566.79 139.625C1568.03 136.695 1568.65 132.854 1568.65 128.102V103.59H1559.47V73.9023H1601.46V174H1587.69L1581.83 159.547C1575.84 170.224 1566.4 175.562 1553.51 175.562ZM1615.13 174V2.125H1661.71C1674.21 2.125 1683.3 5.1849 1688.96 11.3047C1694.69 17.3594 1697.55 27.3854 1697.55 41.3828V48.9023C1697.55 56.9753 1696.09 63.5182 1693.16 68.5312C1690.3 73.5443 1685.9 76.832 1679.98 78.3945C1687.72 80.3477 1692.9 84.9375 1695.5 92.1641C1698.17 99.3255 1699.51 108.082 1699.51 118.434C1699.51 129.566 1698.47 139.299 1696.38 147.633C1694.3 155.966 1690.52 162.444 1685.05 167.066C1679.59 171.689 1671.81 174 1661.71 174H1615.13ZM1648.73 66.8711H1655.76C1658.95 66.8711 1661 65.6341 1661.91 63.1602C1662.82 60.6862 1663.28 57.724 1663.28 54.2734V36.9883C1663.28 31.4544 1660.84 28.6875 1655.95 28.6875H1648.73V66.8711ZM1652.14 143.727C1661.06 143.727 1665.52 139.495 1665.52 131.031V109.547C1665.52 104.664 1664.77 100.823 1663.28 98.0234C1661.85 95.1589 1659.11 93.7266 1655.07 93.7266H1648.73V143.531C1650.16 143.661 1651.3 143.727 1652.14 143.727ZM1710.84 174V2.125H1779.59V35.3281H1745.8V68.8242H1778.22V101.148H1745.8V140.504H1781.83V174H1710.84ZM1840.13 174V2.125H1887.4C1899.77 2.125 1909.08 5.57552 1915.33 12.4766C1921.58 19.3125 1924.7 29.3385 1924.7 42.5547V123.023C1924.7 139.299 1921.84 151.865 1916.11 160.719C1910.45 169.573 1900.48 174 1886.23 174H1840.13ZM1874.7 143.629H1880.66C1886.98 143.629 1890.13 140.569 1890.13 134.449V45.7773C1890.13 40.0482 1889.35 36.3698 1887.79 34.7422C1886.29 33.0495 1883.2 32.2031 1878.51 32.2031H1874.7V143.629ZM1934.08 174L1950.68 2.125H2008.98L2025.29 174H1992.77L1990.33 146.266H1969.62L1967.48 174H1934.08ZM1972.07 118.824H1987.69L1980.17 31.4219H1978.61L1972.07 118.824ZM2047.36 174L2026.17 2.02734H2058.88L2071.48 119.02L2082.71 2.02734H2115.43L2094.23 174H2047.36ZM2123.92 174V2.125H2157.12V174H2123.92ZM2170.8 174V2.125H2218.06C2230.43 2.125 2239.74 5.57552 2245.99 12.4766C2252.24 19.3125 2255.37 29.3385 2255.37 42.5547V123.023C2255.37 139.299 2252.5 151.865 2246.77 160.719C2241.11 169.573 2231.15 174 2216.89 174H2170.8ZM2205.37 143.629H2211.32C2217.64 143.629 2220.8 140.569 2220.8 134.449V45.7773C2220.8 40.0482 2220.02 36.3698 2218.45 34.7422C2216.96 33.0495 2213.86 32.2031 2209.18 32.2031H2205.37V143.629Z" fill="white"/>
</svg>
